<svg
  width="17"
  height="16"
  viewBox="0 0 17 16"
  fill="none"
  xmlns="http://www.w3.org/2000/svg"
  class="w-6 h-6"
><path d="M6.32399 5.97455H6.93647C6.97992 5.97318 7.0232 5.98056 7.06374 5.99625C7.10428 6.01193 7.14126 6.0356 7.17247 6.06585C7.20369 6.0961 7.22851 6.13232 7.24546 6.17234C7.26241 6.21237 7.27114 6.2554 7.27114 6.29887C7.27114 6.34234 7.26241 6.38536 7.24546 6.42539C7.22851 6.46542 7.20369 6.50163 7.17247 6.53188C7.14126 6.56213 7.10428 6.58581 7.06374 6.60149C7.0232 6.61717 6.97992 6.62455 6.93647 6.62319H6.42799C6.33864 6.62299 6.25062 6.60142 6.1713 6.56028C6.09197 6.51914 6.02364 6.45963 5.97199 6.38671C5.92341 6.31351 5.84868 6.26165 5.76311 6.24175C5.67754 6.22185 5.5876 6.23541 5.5117 6.27965C5.4358 6.3239 5.37969 6.39549 5.35484 6.47976C5.33 6.56403 5.33831 6.65461 5.37807 6.73295C5.38539 6.7476 5.39373 6.76171 5.40303 6.77519C5.50433 6.92129 5.63567 7.04407 5.78827 7.13529C5.94086 7.22652 6.11118 7.28409 6.28783 7.30415V7.51471C6.28783 7.60603 6.32411 7.69361 6.38868 7.75818C6.45326 7.82275 6.54083 7.85903 6.63215 7.85903C6.72347 7.85903 6.81105 7.82275 6.87562 7.75818C6.9402 7.69361 6.97647 7.60603 6.97647 7.51471V7.31151C7.24063 7.3001 7.48986 7.18589 7.67095 6.99325C7.85204 6.8006 7.95065 6.5448 7.94572 6.28044C7.9408 6.01609 7.83272 5.76414 7.64457 5.57838C7.45642 5.39262 7.20311 5.28778 6.93871 5.28623H6.32399C6.23794 5.28623 6.1554 5.25204 6.09455 5.19119C6.0337 5.13034 5.99951 5.04781 5.99951 4.96175C5.99951 4.87569 6.0337 4.79316 6.09455 4.73231C6.1554 4.67145 6.23794 4.63727 6.32399 4.63727H6.83023C6.92112 4.63726 7.01067 4.65923 7.09124 4.7013C7.1718 4.74336 7.24101 4.80428 7.29295 4.87887C7.30475 4.89561 7.31791 4.91135 7.33231 4.92591C7.39336 4.98851 7.47592 5.02557 7.56327 5.02957C7.65062 5.03358 7.73623 5.00423 7.80275 4.94747C7.86927 4.89072 7.91173 4.8108 7.92153 4.72391C7.93132 4.63702 7.90773 4.54965 7.85551 4.47951C7.75374 4.33543 7.62274 4.21443 7.47106 4.12439C7.31937 4.03435 7.15041 3.97729 6.97519 3.95695V3.71151C6.97519 3.62019 6.93892 3.53261 6.87434 3.46804C6.80977 3.40346 6.72219 3.36719 6.63087 3.36719C6.53955 3.36719 6.45198 3.40346 6.3874 3.46804C6.32283 3.53261 6.28655 3.62019 6.28655 3.71151V3.95055C6.02594 3.96666 5.7816 4.08277 5.60452 4.27466C5.42744 4.46655 5.33128 4.71941 5.33611 4.98048C5.34094 5.24155 5.44638 5.49067 5.63044 5.67588C5.8145 5.86109 6.06296 5.96809 6.32399 5.97455Z" fill="#D09D5A"></path><path d="M11.4334 7.38086H9.96682C9.848 7.38086 9.73405 7.42806 9.65004 7.51208C9.56602 7.59609 9.51882 7.71004 9.51882 7.82886V8.29126H8.50026C8.38144 8.29126 8.26749 8.33846 8.18348 8.42248C8.09946 8.50649 8.05226 8.62044 8.05226 8.73926V8.93862H7.0337C6.91488 8.93862 6.80093 8.98582 6.71692 9.06984C6.6329 9.15385 6.5857 9.2678 6.5857 9.38662V9.61062H5.56714C5.44832 9.61062 5.33437 9.65782 5.25036 9.74184C5.16634 9.82585 5.11914 9.9398 5.11914 10.0586V12.1354C5.11914 12.2542 5.16634 12.3682 5.25036 12.4522C5.33437 12.5362 5.44832 12.5834 5.56714 12.5834H11.4334C11.5522 12.5834 11.6661 12.5362 11.7502 12.4522C11.8342 12.3682 11.8814 12.2542 11.8814 12.1354V7.82886C11.8814 7.71004 11.8342 7.59609 11.7502 7.51208C11.6661 7.42806 11.5522 7.38086 11.4334 7.38086ZM8.94826 9.18726H9.52426V11.6884H8.94826V9.48998C8.94816 9.47276 8.94709 9.45556 8.94506 9.43846C8.94709 9.42125 8.94816 9.40395 8.94826 9.38662V9.18726ZM7.4817 9.83462H8.05226V11.6884H7.4817V9.83462ZM6.01514 10.5066H6.5857V11.6874H6.01514V10.5066ZM10.9854 11.6874H10.4203V8.82278C10.4201 8.80049 10.4183 8.77824 10.4148 8.75622C10.4148 8.75046 10.4148 8.74502 10.4148 8.73926V8.27686H10.9854V11.6874Z" fill="#D09D5A"></path><path d="M12.1417 1.47656H4.85781C4.43365 1.47716 4.02703 1.64592 3.7271 1.94585C3.42717 2.24578 3.25841 2.6524 3.25781 3.07656V12.923C3.25841 13.3471 3.42717 13.7537 3.7271 14.0537C4.02703 14.3536 4.43365 14.5224 4.85781 14.523H12.1417C12.5658 14.5224 12.9724 14.3536 13.2724 14.0537C13.5723 13.7537 13.7411 13.3471 13.7417 12.923V3.0772C13.7412 2.65293 13.5725 2.24614 13.2726 1.94607C12.9726 1.646 12.5659 1.47716 12.1417 1.47656ZM12.8057 12.923C12.8054 13.099 12.7354 13.2677 12.6109 13.3922C12.4864 13.5167 12.3177 13.5867 12.1417 13.587H4.85781C4.68179 13.5867 4.51304 13.5167 4.38857 13.3922C4.2641 13.2677 4.19407 13.099 4.19381 12.923V3.0772C4.19407 2.90118 4.2641 2.73243 4.38857 2.60796C4.51304 2.48349 4.68179 2.41346 4.85781 2.4132H12.1417C12.3177 2.41346 12.4864 2.48349 12.6109 2.60796C12.7354 2.73243 12.8054 2.90118 12.8057 3.0772V12.923Z" fill="#D09D5A"></path><path d="M11.4339 3.89062H9.30813C9.18082 3.89062 9.05873 3.9412 8.96871 4.03121C8.8787 4.12123 8.82812 4.24332 8.82812 4.37063C8.82812 4.49793 8.8787 4.62002 8.96871 4.71004C9.05873 4.80005 9.18082 4.85063 9.30813 4.85063H11.4339C11.5612 4.85063 11.6833 4.80005 11.7733 4.71004C11.8633 4.62002 11.9139 4.49793 11.9139 4.37063C11.9139 4.24332 11.8633 4.12123 11.7733 4.03121C11.6833 3.9412 11.5612 3.89062 11.4339 3.89062Z" fill="#D09D5A"></path><path d="M11.4339 5.52148H9.30813C9.18082 5.52148 9.05873 5.57206 8.96871 5.66207C8.8787 5.75209 8.82812 5.87418 8.82812 6.00148C8.82812 6.12879 8.8787 6.25088 8.96871 6.3409C9.05873 6.43091 9.18082 6.48148 9.30813 6.48148H11.4339C11.5612 6.48148 11.6833 6.43091 11.7733 6.3409C11.8633 6.25088 11.9139 6.12879 11.9139 6.00148C11.9139 5.87418 11.8633 5.75209 11.7733 5.66207C11.6833 5.57206 11.5612 5.52148 11.4339 5.52148Z" fill="#D09D5A"></path></svg>
