<svg
  width="28"
  height="28"
  viewBox="0 0 28 28"
  fill="none"
  xmlns="http://www.w3.org/2000/svg"
  class="w-6 h-6"
><path d="M16.024 7.49609C15.7048 7.49609 15.4472 7.75369 15.4472 8.07289V8.50409C14.512 8.54329 13.7672 9.32729 13.7896 10.2737C13.8064 11.2145 14.5568 11.9593 15.4976 11.9761H16.556C16.8752 11.9873 17.1328 12.2561 17.1216 12.5753C17.1104 12.8833 16.864 13.1297 16.5616 13.1409H15.6768C15.352 13.1409 15.0496 12.9841 14.8648 12.7153C14.848 12.6873 14.8256 12.6593 14.7976 12.6369C14.5736 12.4129 14.204 12.4073 13.98 12.6313C13.7784 12.8329 13.7504 13.1521 13.9184 13.3817C14.2768 13.8969 14.8312 14.2217 15.4528 14.2833V14.6641C15.4528 14.9833 15.7104 15.2409 16.0296 15.2409C16.3488 15.2409 16.6064 14.9833 16.6064 14.6641V14.2945C17.5416 14.2553 18.2808 13.4713 18.264 12.5249C18.2472 11.5841 17.4968 10.8393 16.5616 10.8225H15.5032C15.3464 10.8169 15.2008 10.7553 15.0944 10.6433C14.988 10.5313 14.932 10.3801 14.9376 10.2289C14.9488 9.92089 15.1952 9.67449 15.4976 9.66329H16.3768C16.7016 9.66329 17.004 9.82009 17.1888 10.0833C17.368 10.3465 17.7264 10.4193 17.9896 10.2401C18.2024 10.0945 18.2976 9.82569 18.2136 9.57929C18.1968 9.52329 18.1688 9.47289 18.1408 9.42809C17.7824 8.91289 17.228 8.58249 16.6064 8.52089V8.07289C16.6008 7.75369 16.3432 7.49609 16.024 7.49609Z" fill="#D09D5A"></path><path d="M26.5416 5H5.50797C5.04317 5 4.66797 5.3752 4.66797 5.84V12.2408C4.66797 12.7056 5.04317 13.0808 5.50797 13.0808C5.97277 13.0808 6.34797 12.7056 6.34797 12.2408V10.1408C8.10637 9.844 9.49517 8.444 9.78077 6.6744H22.1736C22.4592 8.472 23.8928 9.8888 25.7016 10.152V12.6328C23.8312 12.9072 22.3584 14.4192 22.1512 16.312H12.8216C12.3568 16.312 11.9816 16.6872 11.9816 17.152C11.9816 17.6168 12.3568 17.992 12.8216 17.992H26.5416C27.0064 17.992 27.3816 17.6168 27.3816 17.152V5.84C27.3816 5.3752 27.0064 5 26.5416 5ZM7.41757 7.7888C7.11517 8.0912 6.74557 8.3096 6.34797 8.4216V6.6744H8.06157C7.94957 7.0944 7.73117 7.4752 7.41757 7.7888ZM23.8928 6.68H25.7016V8.4496C24.828 8.2256 24.1336 7.548 23.8928 6.68ZM23.848 16.3176C24.0328 15.3544 24.7608 14.5872 25.7016 14.352V16.3176H23.848Z" fill="#D09D5A"></path><path d="M5.95651 13.7539C2.88211 13.7539 0.378906 16.2571 0.378906 19.3315C0.378906 22.4059 2.88211 24.9091 5.95651 24.9091C9.03091 24.9091 11.5341 22.4059 11.5341 19.3315C11.5341 16.2571 9.03091 13.7539 5.95651 13.7539ZM5.95651 23.2291C3.80611 23.2291 2.05891 21.4819 2.05891 19.3315C2.05891 17.1811 3.80611 15.4339 5.95651 15.4339C8.10691 15.4339 9.85411 17.1811 9.85411 19.3315C9.85411 21.4819 8.10131 23.2291 5.95651 23.2291Z" fill="#D09D5A"></path><path d="M7.43589 19.1294H6.55109V17.2814C6.55109 16.8166 6.17589 16.4414 5.71109 16.4414C5.24629 16.4414 4.87109 16.8166 4.87109 17.2814V19.9694C4.87109 20.4342 5.24629 20.8094 5.71109 20.8094H7.43589C7.90069 20.8094 8.27589 20.4342 8.27589 19.9694C8.27589 19.5046 7.90069 19.1294 7.43589 19.1294Z" fill="#D09D5A"></path><path d="M24.2503 18.6914H13.5431C13.0783 18.6914 12.7031 19.0666 12.7031 19.5314C12.7031 19.9962 13.0783 20.3714 13.5431 20.3714H24.2503C24.7151 20.3714 25.0903 19.9962 25.0903 19.5314C25.0903 19.0666 24.7151 18.6914 24.2503 18.6914Z" fill="#D09D5A"></path><path d="M20.0501 21.0664H12.8205C12.3557 21.0664 11.9805 21.4416 11.9805 21.9064C11.9805 22.3712 12.3557 22.7464 12.8205 22.7464H20.0557C20.5205 22.7464 20.8957 22.3712 20.8957 21.9064C20.8957 21.4416 20.5149 21.0664 20.0501 21.0664Z" fill="#D09D5A"></path><path d="M16.6006 23.4297H11.6838C11.219 23.4297 10.8438 23.8049 10.8438 24.2697C10.8438 24.7345 11.219 25.1097 11.6838 25.1097H16.6006C17.0654 25.1097 17.4406 24.7345 17.4406 24.2697C17.4406 23.8049 17.0654 23.4297 16.6006 23.4297Z" fill="#D09D5A"></path></svg>
