<svg
  width="24"
  height="24"
  viewBox="0 0 24 24"
  fill="none"
  xmlns="http://www.w3.org/2000/svg"
  class="w-6 h-6"
><path d="M11.9654 20.3625H4.68239C4.42298 20.3622 4.17426 20.2591 3.99078 20.0757C3.80731 19.8923 3.70405 19.6437 3.70367 19.3843V4.61562C3.70405 4.35616 3.80729 4.10744 3.99075 3.92398C4.17422 3.74052 4.42294 3.63728 4.68239 3.6369H15.6077C15.8671 3.63728 16.1158 3.74052 16.2993 3.92398C16.4828 4.10744 16.586 4.35616 16.5864 4.61562V14.3625C16.5864 14.5535 16.6622 14.7366 16.7973 14.8716C16.9323 15.0066 17.1154 15.0825 17.3064 15.0825C17.4973 15.0825 17.6805 15.0066 17.8155 14.8716C17.9505 14.7366 18.0264 14.5535 18.0264 14.3625V4.61562C18.0256 3.97437 17.7706 3.3596 17.3171 2.90617C16.8637 2.45274 16.2489 2.19766 15.6077 2.1969H4.68239C4.04114 2.19766 3.42637 2.45274 2.97294 2.90617C2.51951 3.3596 2.26443 3.97437 2.26367 4.61562V19.3843C2.26456 20.0254 2.51969 20.6401 2.97311 21.0934C3.42653 21.5467 4.04122 21.8017 4.68239 21.8025H11.9654C12.1564 21.8025 12.3395 21.7266 12.4745 21.5916C12.6096 21.4566 12.6854 21.2735 12.6854 21.0825C12.6854 20.8915 12.6096 20.7084 12.4745 20.5734C12.3395 20.4384 12.1564 20.3625 11.9654 20.3625Z" fill="#D09D5A"></path><path d="M13.9326 6.40747H9.07449C8.88354 6.40747 8.7004 6.48333 8.56538 6.61835C8.43035 6.75338 8.35449 6.93651 8.35449 7.12747C8.35449 7.31843 8.43035 7.50156 8.56538 7.63659C8.7004 7.77161 8.88354 7.84747 9.07449 7.84747H13.9326C14.1235 7.84747 14.3067 7.77161 14.4417 7.63659C14.5767 7.50156 14.6526 7.31843 14.6526 7.12747C14.6526 6.93651 14.5767 6.75338 14.4417 6.61835C14.3067 6.48333 14.1235 6.40747 13.9326 6.40747Z" fill="#D09D5A"></path><path d="M7.09941 6.40747H6.50613C6.31518 6.40747 6.13204 6.48333 5.99702 6.61835C5.86199 6.75338 5.78613 6.93651 5.78613 7.12747C5.78613 7.31843 5.86199 7.50156 5.99702 7.63659C6.13204 7.77161 6.31518 7.84747 6.50613 7.84747H7.09941C7.29037 7.84747 7.4735 7.77161 7.60853 7.63659C7.74356 7.50156 7.81941 7.31843 7.81941 7.12747C7.81941 6.93651 7.74356 6.75338 7.60853 6.61835C7.4735 6.48333 7.29037 6.40747 7.09941 6.40747Z" fill="#D09D5A"></path><path d="M13.9326 9.65564H9.07449C8.88354 9.65564 8.7004 9.7315 8.56538 9.86652C8.43035 10.0015 8.35449 10.1847 8.35449 10.3756C8.35449 10.5666 8.43035 10.7497 8.56538 10.8848C8.7004 11.0198 8.88354 11.0956 9.07449 11.0956H13.9326C14.1235 11.0956 14.3067 11.0198 14.4417 10.8848C14.5767 10.7497 14.6526 10.5666 14.6526 10.3756C14.6526 10.1847 14.5767 10.0015 14.4417 9.86652C14.3067 9.7315 14.1235 9.65564 13.9326 9.65564Z" fill="#D09D5A"></path><path d="M7.09941 9.65564H6.50613C6.31518 9.65564 6.13204 9.7315 5.99702 9.86652C5.86199 10.0015 5.78613 10.1847 5.78613 10.3756C5.78613 10.5666 5.86199 10.7497 5.99702 10.8848C6.13204 11.0198 6.31518 11.0956 6.50613 11.0956H7.09941C7.29037 11.0956 7.4735 11.0198 7.60853 10.8848C7.74356 10.7497 7.81941 10.5666 7.81941 10.3756C7.81941 10.1847 7.74356 10.0015 7.60853 9.86652C7.4735 9.7315 7.29037 9.65564 7.09941 9.65564Z" fill="#D09D5A"></path><path d="M14.6526 13.6243C14.6526 13.4333 14.5767 13.2502 14.4417 13.1152C14.3067 12.9802 14.1235 12.9043 13.9326 12.9043H9.07449C8.88354 12.9043 8.7004 12.9802 8.56538 13.1152C8.43035 13.2502 8.35449 13.4333 8.35449 13.6243C8.35449 13.8153 8.43035 13.9984 8.56538 14.1334C8.7004 14.2684 8.88354 14.3443 9.07449 14.3443H13.9326C14.1235 14.3443 14.3067 14.2684 14.4417 14.1334C14.5767 13.9984 14.6526 13.8153 14.6526 13.6243Z" fill="#D09D5A"></path><path d="M7.09941 12.9043H6.50613C6.31518 12.9043 6.13204 12.9802 5.99702 13.1152C5.86199 13.2502 5.78613 13.4333 5.78613 13.6243C5.78613 13.8153 5.86199 13.9984 5.99702 14.1334C6.13204 14.2684 6.31518 14.3443 6.50613 14.3443H7.09941C7.29037 14.3443 7.4735 14.2684 7.60853 14.1334C7.74356 13.9984 7.81941 13.8153 7.81941 13.6243C7.81941 13.4333 7.74356 13.2502 7.60853 13.1152C7.4735 12.9802 7.29037 12.9043 7.09941 12.9043Z" fill="#D09D5A"></path><path d="M9.07449 16.1525C8.88354 16.1525 8.7004 16.2283 8.56538 16.3633C8.43035 16.4984 8.35449 16.6815 8.35449 16.8725C8.35449 17.0634 8.43035 17.2466 8.56538 17.3816C8.7004 17.5166 8.88354 17.5925 9.07449 17.5925H11.643C11.8339 17.5925 12.0171 17.5166 12.1521 17.3816C12.2871 17.2466 12.363 17.0634 12.363 16.8725C12.363 16.6815 12.2871 16.4984 12.1521 16.3633C12.0171 16.2283 11.8339 16.1525 11.643 16.1525H9.07449Z" fill="#D09D5A"></path><path d="M7.09941 16.1525H6.50613C6.31518 16.1525 6.13204 16.2283 5.99702 16.3633C5.86199 16.4984 5.78613 16.6815 5.78613 16.8725C5.78613 17.0634 5.86199 17.2466 5.99702 17.3816C6.13204 17.5166 6.31518 17.5925 6.50613 17.5925H7.09941C7.29037 17.5925 7.4735 17.5166 7.60853 17.3816C7.74356 17.2466 7.81941 17.0634 7.81941 16.8725C7.81941 16.6815 7.74356 16.4984 7.60853 16.3633C7.4735 16.2283 7.29037 16.1525 7.09941 16.1525Z" fill="#D09D5A"></path><path d="M21.2734 17.9386C21.2734 17.8425 21.2472 17.7482 21.1976 17.666L20.2611 16.1136C20.2142 16.0358 20.1479 15.9714 20.0688 15.9266C19.9897 15.8819 19.9003 15.8584 19.8094 15.8583H14.1339C14.0427 15.858 13.953 15.8814 13.8735 15.9262C13.794 15.9709 13.7274 16.0355 13.6803 16.1136L12.7458 17.664C12.6959 17.7462 12.6697 17.8406 12.6699 17.9367C12.6703 18.2338 12.7604 18.5239 12.9286 18.7689C13.0967 19.0139 13.335 19.2023 13.6122 19.3095L13.6059 22.5476C13.6059 22.6876 13.6616 22.8219 13.7606 22.9209C13.8596 23.0199 13.9939 23.0756 14.1339 23.0756H19.8094C19.9495 23.0756 20.0838 23.0199 20.1828 22.9209C20.2818 22.8219 20.3374 22.6876 20.3374 22.5476L20.3307 19.3095C20.6076 19.2025 20.8458 19.0144 21.014 18.7697C21.1822 18.5251 21.2726 18.2355 21.2734 17.9386ZM14.432 16.9143H19.5109L20.2002 18.0567C20.172 18.1526 20.1102 18.2352 20.026 18.2892C19.9419 18.3432 19.8411 18.365 19.7421 18.3507C19.6432 18.3363 19.5527 18.2867 19.4874 18.211C19.4221 18.1353 19.3863 18.0386 19.3866 17.9386C19.3866 17.7986 19.3309 17.6643 19.2319 17.5652C19.1329 17.4662 18.9986 17.4106 18.8586 17.4106C18.7185 17.4106 18.5842 17.4662 18.4852 17.5652C18.3862 17.6643 18.3306 17.7986 18.3306 17.9386C18.3269 18.0463 18.2815 18.1484 18.204 18.2234C18.1265 18.2983 18.0229 18.3402 17.9151 18.3402C17.8073 18.3402 17.7037 18.2983 17.6262 18.2234C17.5487 18.1484 17.5033 18.0463 17.4997 17.9386C17.4997 17.7986 17.4441 17.6643 17.345 17.5652C17.246 17.4662 17.1117 17.4106 16.9717 17.4106C16.8316 17.4106 16.6974 17.4662 16.5983 17.5652C16.4993 17.6643 16.4437 17.7986 16.4437 17.9386C16.44 18.0463 16.3946 18.1484 16.3171 18.2234C16.2396 18.2983 16.136 18.3402 16.0282 18.3402C15.9204 18.3402 15.8169 18.2983 15.7393 18.2234C15.6618 18.1484 15.6165 18.0463 15.6128 17.9386C15.6128 17.7986 15.5572 17.6643 15.4582 17.5652C15.3591 17.4662 15.2248 17.4106 15.0848 17.4106C14.9448 17.4106 14.8105 17.4662 14.7114 17.5652C14.6124 17.6643 14.5568 17.7986 14.5568 17.9386C14.5571 18.0386 14.5213 18.1353 14.456 18.211C14.3906 18.2867 14.3002 18.3363 14.2012 18.3507C14.1023 18.365 14.0015 18.3432 13.9173 18.2892C13.8332 18.2352 13.7714 18.1526 13.7432 18.0567L14.432 16.9143ZM16.6774 22.0224V21.2602C16.6774 21.1512 16.7207 21.0467 16.7978 20.9697C16.8748 20.8926 16.9794 20.8493 17.0883 20.8493C17.1973 20.8493 17.3018 20.8926 17.3789 20.9697C17.4559 21.0467 17.4992 21.1512 17.4992 21.2602V22.0224H16.6774ZM18.5552 22.0224V21.2602C18.5552 21.0676 18.5173 20.8768 18.4435 20.6988C18.3698 20.5209 18.2618 20.3592 18.1256 20.223C17.9894 20.0867 17.8276 19.9787 17.6497 19.905C17.4717 19.8313 17.281 19.7933 17.0883 19.7933C16.8957 19.7933 16.7049 19.8313 16.527 19.905C16.349 19.9787 16.1873 20.0867 16.0511 20.223C15.9149 20.3592 15.8068 20.5209 15.7331 20.6988C15.6594 20.8768 15.6214 21.0676 15.6214 21.2602V22.0224H14.6614L14.6667 19.3119C14.8183 19.2538 14.9591 19.1709 15.0834 19.0666C15.3478 19.2883 15.6818 19.4098 16.0268 19.4098C16.3718 19.4098 16.7059 19.2883 16.9702 19.0666C17.2346 19.2883 17.5686 19.4098 17.9137 19.4098C18.2587 19.4098 18.5927 19.2883 18.8571 19.0666C18.9812 19.171 19.1218 19.2539 19.2733 19.3119L19.2786 22.0224H18.5552Z" fill="#D09D5A"></path></svg>
