<svg
  width="21"
  height="21"
  viewBox="0 0 21 21"
  fill="none"
  xmlns="http://www.w3.org/2000/svg"
  class="mt-0.5 mr-1"
><g clip-path="url(#clip0_3072_6867)"><path d="M13.6541 3.95403C13.5917 3.99775 13.5386 4.05332 13.4977 4.11757C13.4569 4.18182 13.4291 4.2535 13.4159 4.32849C13.4028 4.40349 13.4045 4.48035 13.4211 4.55467C13.4377 4.62899 13.4687 4.69932 13.5125 4.76163L15.2725 7.27003C15.3256 7.3458 15.3961 7.40774 15.4781 7.45068C15.5601 7.49362 15.6511 7.5163 15.7437 7.51683H15.7469C15.8387 7.51688 15.9293 7.49515 16.0111 7.45343C16.093 7.41172 16.1637 7.35119 16.2177 7.27683L18.0077 4.79003C18.0521 4.72823 18.084 4.65828 18.1014 4.58417C18.1188 4.51006 18.1215 4.43324 18.1093 4.35809C18.097 4.28295 18.0701 4.21096 18.03 4.14623C17.9899 4.0815 17.9375 4.0253 17.8757 3.98083C17.8139 3.93637 17.7439 3.90451 17.6698 3.88708C17.5957 3.86965 17.5189 3.86698 17.4437 3.87924C17.3686 3.8915 17.2966 3.91844 17.2319 3.95852C17.1671 3.9986 17.1109 4.05103 17.0665 4.11283L16.3405 5.11803V1.55363C16.3405 1.39981 16.2794 1.25228 16.1706 1.14351C16.0618 1.03474 15.9143 0.973633 15.7605 0.973633C15.6066 0.973633 15.4591 1.03474 15.3503 1.14351C15.2416 1.25228 15.1805 1.39981 15.1805 1.55363V5.12243L14.4605 4.09563C14.3721 3.97015 14.2377 3.8848 14.0865 3.85825C13.9354 3.83171 13.7799 3.86615 13.6541 3.95403Z" fill="#F6F6F6" fill-opacity="0.9"></path><path d="M10.5005 15.2601C10.6796 15.2601 10.8514 15.189 10.978 15.0624C11.1047 14.9358 11.176 14.764 11.1761 14.5849V14.1849C11.7006 14.1716 12.1986 13.9513 12.5613 13.5721C12.9241 13.1929 13.122 12.6856 13.112 12.161C13.1021 11.6363 12.8849 11.1369 12.5081 10.7718C12.1312 10.4067 11.6252 10.2055 11.1005 10.2121H9.90046C9.73569 10.2063 9.57961 10.1367 9.46511 10.0181C9.35061 9.89943 9.28662 9.74099 9.28662 9.57611C9.28662 9.41123 9.35061 9.25279 9.46511 9.13416C9.57961 9.01552 9.73569 8.94596 9.90046 8.94011H10.8933C11.0715 8.94028 11.247 8.98341 11.405 9.06585C11.563 9.1483 11.6988 9.26762 11.8009 9.41371C11.8513 9.48858 11.9162 9.5526 11.9917 9.60197C12.0673 9.65134 12.152 9.68507 12.2408 9.70117C12.3296 9.71727 12.4207 9.71541 12.5088 9.69569C12.5969 9.67598 12.6801 9.63882 12.7536 9.5864C12.8271 9.53399 12.8893 9.46738 12.9366 9.39051C12.984 9.31364 13.0154 9.22807 13.0291 9.13885C13.0428 9.04964 13.0384 8.95858 13.0163 8.87107C12.9943 8.78355 12.9549 8.70135 12.9005 8.62931C12.7011 8.3467 12.4443 8.10938 12.1468 7.93285C11.8494 7.75632 11.5181 7.64457 11.1745 7.60491V7.12091C11.1745 6.94173 11.1033 6.76989 10.9766 6.64319C10.8499 6.51649 10.678 6.44531 10.4989 6.44531C10.3197 6.44531 10.1478 6.51649 10.0211 6.64319C9.89444 6.76989 9.82326 6.94173 9.82326 7.12091V7.59011C9.30408 7.61092 8.81371 7.83428 8.45726 8.21233C8.1008 8.59038 7.90663 9.09302 7.91636 9.61253C7.9261 10.132 8.13895 10.6271 8.50932 10.9915C8.87968 11.3559 9.37807 11.5608 9.89766 11.5621H11.0977C11.2636 11.5663 11.4214 11.6351 11.5373 11.754C11.6532 11.8728 11.7181 12.0323 11.7181 12.1983C11.7181 12.3643 11.6532 12.5238 11.5373 12.6426C11.4214 12.7615 11.2636 12.8304 11.0977 12.8345H10.1029C9.92704 12.8344 9.7538 12.7922 9.59769 12.7113C9.44157 12.6304 9.30714 12.5133 9.20566 12.3697C9.1101 12.2265 8.96347 12.1252 8.79572 12.0865C8.62798 12.0477 8.45178 12.0745 8.3031 12.1613C8.15442 12.2481 8.04449 12.3884 7.99575 12.5535C7.94702 12.7186 7.96315 12.8961 8.04086 13.0497C8.05524 13.0785 8.07168 13.1061 8.09006 13.1325C8.28871 13.419 8.54622 13.6598 8.84539 13.8388C9.14456 14.0178 9.47849 14.1309 9.82486 14.1705V14.5833C9.82471 14.6721 9.84206 14.7601 9.87595 14.8422C9.90983 14.9243 9.95957 14.9989 10.0223 15.0618C10.0851 15.1247 10.1596 15.1745 10.2416 15.2086C10.3237 15.2426 10.4116 15.2601 10.5005 15.2601Z" fill="#F6F6F6" fill-opacity="0.9"></path><path d="M19.6571 10.2972C19.5799 8.97053 19.2131 7.67687 18.5823 6.5072C18.5075 6.37541 18.384 6.27814 18.2384 6.23621C18.0928 6.19428 17.9365 6.21101 17.803 6.28283C17.6696 6.35466 17.5696 6.47586 17.5243 6.6205C17.4791 6.76515 17.4923 6.92175 17.5611 7.0568C18.4517 8.71448 18.7307 10.6327 18.3492 12.4754C17.9677 14.3181 16.9501 15.9678 15.4745 17.1356C13.999 18.3035 12.1596 18.9149 10.2785 18.8629C8.39747 18.8109 6.59467 18.0988 5.1859 16.8512C3.78352 15.6075 2.86128 13.9118 2.57948 12.0587C2.29769 10.2056 2.67416 8.31236 3.64345 6.70804C4.61274 5.10373 6.11357 3.8898 7.88505 3.27725C9.65652 2.66471 11.5866 2.69229 13.3399 3.3552C13.4836 3.40978 13.6432 3.40502 13.7834 3.34197C13.9237 3.27892 14.0331 3.16274 14.0877 3.019C14.1423 2.87525 14.1375 2.71571 14.0745 2.57547C14.0114 2.43523 13.8952 2.32578 13.7515 2.2712C11.7444 1.51095 9.53439 1.47835 7.50579 2.17906C5.47719 2.87977 3.75842 4.26946 2.64847 6.10637C1.53852 7.94328 1.10764 10.1112 1.43078 12.2329C1.75392 14.3547 2.81064 16.296 4.4171 17.7192C6.08826 19.2081 8.24925 20.0295 10.4875 20.0264C10.6758 20.0264 10.8648 20.0205 11.0547 20.0088C12.2572 19.936 13.4336 19.627 14.5167 19.0996C15.5999 18.5721 16.5685 17.8365 17.3673 16.9347C18.1661 16.0329 18.7795 14.9825 19.1723 13.8437C19.5652 12.7048 19.7299 11.4997 19.6571 10.2972Z" fill="#F6F6F6" fill-opacity="0.9"></path></g><defs><clipPath id="clip0_3072_6867"><rect width="20" height="20" fill="white" transform="translate(0.5 0.5)"></rect></clipPath></defs></svg>
