<svg
  width="24"
  height="28"
  viewBox="0 0 28 28"
  fill="none"
  xmlns="http://www.w3.org/2000/svg"
><path d="M26.2133 21.4294C26.2099 21.0701 26.1226 20.7165 25.9584 20.3968C25.7942 20.0772 25.5576 19.8003 25.2675 19.5882L23.2689 18.0958C22.5901 17.589 22.2009 16.8397 22.2009 16.0406V10.6926C22.2009 7.26872 19.8288 4.35728 16.5522 3.34144C16.6498 2.99148 16.6713 2.62467 16.6153 2.26569C16.5593 1.90671 16.4271 1.56389 16.2275 1.26028C16.028 0.956669 15.7657 0.69931 15.4584 0.505514C15.1511 0.311717 14.8058 0.185976 14.4459 0.136748C14.0859 0.0875201 13.7196 0.115947 13.3715 0.220116C13.0234 0.324285 12.7017 0.501781 12.428 0.740666C12.1542 0.979552 11.9348 1.27429 11.7845 1.60505C11.6342 1.93581 11.5564 2.29492 11.5565 2.65824C11.5567 2.86841 11.5828 3.07775 11.6343 3.28152C8.25469 4.23912 5.78453 7.20152 5.78453 10.6926V16.0462C5.78453 16.8425 5.39701 17.5901 4.72053 18.0963L2.72805 19.5893C2.43635 19.8036 2.19912 20.0834 2.0355 20.4063C1.87188 20.7292 1.78646 21.086 1.78613 21.4479V21.4854C1.80237 21.9144 2.01573 22.5276 2.93749 23.0137C4.24565 23.7025 6.91349 24.1001 9.76949 24.291C9.96338 25.2961 10.5008 26.2023 11.2898 26.8544C12.0787 27.5065 13.0699 27.8639 14.0934 27.8652C15.1169 27.8665 16.1091 27.5118 16.8996 26.8617C17.6902 26.2116 18.2301 25.3067 18.4265 24.3022C21.0249 24.1342 23.9705 23.7607 25.2865 22.9314C26.0689 22.4374 26.224 21.8461 26.2133 21.4294ZM13.5165 2.65824C13.514 2.57998 13.5274 2.50203 13.5556 2.42902C13.5839 2.356 13.6266 2.28941 13.6811 2.2332C13.7356 2.17698 13.8008 2.13229 13.8729 2.10176C13.945 2.07124 14.0225 2.05551 14.1008 2.05551C14.1791 2.05551 14.2566 2.07124 14.3287 2.10176C14.4008 2.13229 14.4661 2.17698 14.5206 2.2332C14.5751 2.28941 14.6177 2.356 14.646 2.42902C14.6743 2.50203 14.6876 2.57998 14.6852 2.65824C14.6856 2.77119 14.6529 2.88177 14.5911 2.97632C14.3934 2.96288 14.1941 2.9556 13.9925 2.9556C13.862 2.9556 13.7321 2.95896 13.6005 2.96456C13.5443 2.87234 13.5152 2.7662 13.5165 2.65824ZM14.1005 25.9038C13.6163 25.9031 13.1431 25.7592 12.7406 25.4902C12.338 25.2211 12.024 24.839 11.8381 24.3918C12.6479 24.4193 13.4498 24.4322 14.2181 24.4322H14.2389C14.7199 24.4322 15.4709 24.426 16.3613 24.398C16.1744 24.8436 15.8603 25.2242 15.4581 25.4921C15.056 25.7599 14.5837 25.9032 14.1005 25.9038ZM21.1005 22.0746C19.3085 22.321 16.9633 22.4626 14.5015 22.4727C11.8695 22.4834 9.30973 22.3467 7.29541 22.0869C4.99157 21.7901 4.11461 21.43 3.80717 21.2558C3.83396 21.2182 3.86646 21.1849 3.90349 21.1573L5.89429 19.6643C7.07029 18.7846 7.74229 17.4658 7.74229 16.0467L7.74509 10.6926C7.74509 7.50728 10.5451 4.9156 13.9936 4.9156C17.4421 4.9156 20.2415 7.50728 20.2415 10.6926V16.0406C20.2415 17.4641 20.9174 18.7846 22.0968 19.666L24.0954 21.159C24.1439 21.1944 24.1842 21.2399 24.2136 21.2922C23.9481 21.4507 23.172 21.7895 21.1011 22.0746H21.1005Z" fill="#F6F6F6" fill-opacity="0.9"></path></svg>
