<svg
  width="22"
  height="23"
  viewBox="0 0 22 23"
  fill="none"
  xmlns="http://www.w3.org/2000/svg"
><path d="M1.58934 6.44312C1.79352 6.443 1.9893 6.36184 2.13368 6.21746C2.27806 6.07308 2.35922 5.8773 2.35934 5.67312V4.8226C2.35992 4.26937 2.57992 3.73896 2.97107 3.34772C3.36222 2.95649 3.89259 2.73638 4.44582 2.73568H5.44814C5.65235 2.73568 5.84821 2.65455 5.99261 2.51015C6.13701 2.36575 6.21814 2.1699 6.21814 1.96568C6.21814 1.76146 6.13701 1.56561 5.99261 1.42121C5.84821 1.2768 5.65235 1.19568 5.44814 1.19568H4.44582C3.4843 1.19684 2.5625 1.57935 1.88264 2.25929C1.20278 2.93923 0.820384 3.86108 0.819336 4.8226V5.67312C0.819336 5.87734 0.900461 6.07319 1.04486 6.21759C1.18927 6.36199 1.38512 6.44312 1.58934 6.44312Z" fill="#F6F6F6"></path><path d="M17.8204 1.19568H16.8159C16.6117 1.19568 16.4158 1.2768 16.2714 1.42121C16.127 1.56561 16.0459 1.76146 16.0459 1.96568C16.0459 2.1699 16.127 2.36575 16.2714 2.51015C16.4158 2.65455 16.6117 2.73568 16.8159 2.73568H17.8204C18.3736 2.73638 18.904 2.95649 19.2952 3.34772C19.6863 3.73896 19.9063 4.26937 19.9069 4.8226V5.67312C19.9069 5.87734 19.988 6.07319 20.1324 6.21759C20.2768 6.36199 20.4727 6.44312 20.6769 6.44312C20.8811 6.44312 21.077 6.36199 21.2214 6.21759C21.3658 6.07319 21.4469 5.87734 21.4469 5.67312V4.8226C21.4459 3.86108 21.0635 2.93923 20.3836 2.25929C19.7037 1.57935 18.7819 1.19684 17.8204 1.19568Z" fill="#F6F6F6"></path><path d="M5.44814 20.2643H4.44582C3.89259 20.2636 3.36222 20.0435 2.97107 19.6523C2.57992 19.261 2.35992 18.7306 2.35934 18.1774V17.3269C2.35934 17.1227 2.27821 16.9268 2.13381 16.7824C1.98941 16.638 1.79355 16.5569 1.58934 16.5569C1.38512 16.5569 1.18927 16.638 1.04486 16.7824C0.900461 16.9268 0.819336 17.1227 0.819336 17.3269V18.1774C0.820384 19.1389 1.20278 20.0608 1.88264 20.7407C2.5625 21.4207 3.4843 21.8032 4.44582 21.8043H5.44814C5.65235 21.8043 5.84821 21.7232 5.99261 21.5788C6.13701 21.4344 6.21814 21.2385 6.21814 21.0343C6.21814 20.8301 6.13701 20.6343 5.99261 20.4899C5.84821 20.3455 5.65235 20.2643 5.44814 20.2643Z" fill="#F6F6F6"></path><path d="M20.6747 16.5569C20.4705 16.557 20.2747 16.6382 20.1304 16.7825C19.986 16.9269 19.9048 17.1227 19.9047 17.3269V18.1774C19.9041 18.7303 19.6844 19.2603 19.2937 19.6515C18.9031 20.0427 18.3733 20.263 17.8204 20.2643H16.8159C16.6117 20.2643 16.4158 20.3455 16.2714 20.4899C16.127 20.6343 16.0459 20.8301 16.0459 21.0343C16.0459 21.2385 16.127 21.4344 16.2714 21.5788C16.4158 21.7232 16.6117 21.8043 16.8159 21.8043H17.8204C18.7819 21.8032 19.7037 21.4207 20.3836 20.7407C21.0635 20.0608 21.4459 19.1389 21.4469 18.1774V17.3269C21.4469 17.2256 21.4269 17.1253 21.3881 17.0317C21.3492 16.9381 21.2923 16.8532 21.2206 16.7816C21.1489 16.7101 21.0637 16.6534 20.97 16.6149C20.8764 16.5763 20.776 16.5566 20.6747 16.5569Z" fill="#F6F6F6"></path><path d="M13.7505 11.0732H15.9003C16.5222 11.0726 17.1184 10.8253 17.5581 10.3856C17.9979 9.94597 18.2453 9.3498 18.246 8.72795V6.57811C18.2453 5.95626 17.9979 5.36009 17.5581 4.92042C17.1184 4.48075 16.5222 4.23349 15.9003 4.23291H13.7505C13.1287 4.23361 12.5326 4.48092 12.0929 4.92058C11.6533 5.36023 11.406 5.95634 11.4053 6.57811V8.72795C11.406 9.34972 11.6533 9.94583 12.0929 10.3855C12.5326 10.8251 13.1287 11.0725 13.7505 11.0732ZM12.9453 6.57811C12.9455 6.36463 13.0304 6.15996 13.1814 6.00901C13.3323 5.85805 13.537 5.77314 13.7505 5.77291H15.9003C16.1139 5.77303 16.3187 5.85788 16.4697 6.00885C16.6208 6.15982 16.7057 6.36455 16.706 6.57811V8.72795C16.7057 8.94151 16.6208 9.14624 16.4697 9.29721C16.3187 9.44818 16.1139 9.53303 15.9003 9.53315H13.7505C13.537 9.53292 13.3323 9.44801 13.1814 9.29706C13.0304 9.1461 12.9455 8.94143 12.9453 8.72795V6.57811Z" fill="#F6F6F6"></path><path d="M8.09587 11.9268H5.94427C5.32246 11.9275 4.72631 12.1747 4.28658 12.6144C3.84685 13.054 3.59945 13.6501 3.59863 14.272V16.4218C3.59945 17.0436 3.84685 17.6397 4.28658 18.0794C4.72631 18.519 5.32246 18.7663 5.94427 18.767H8.09587C8.71764 18.7663 9.31375 18.519 9.75341 18.0793C10.1931 17.6397 10.4404 17.0436 10.4411 16.4218V14.272C10.4404 13.6502 10.1931 13.0541 9.75341 12.6144C9.31375 12.1748 8.71764 11.9275 8.09587 11.9268ZM8.90107 16.4218C8.90084 16.6353 8.81593 16.8399 8.66498 16.9909C8.51402 17.1419 8.30935 17.2268 8.09587 17.227H5.94427C5.73072 17.2269 5.52593 17.142 5.37488 16.9911C5.22383 16.8401 5.13887 16.6354 5.13863 16.4218V14.272C5.13887 14.0584 5.22383 13.8537 5.37488 13.7027C5.52593 13.5517 5.73072 13.4669 5.94427 13.4668H8.09587C8.30935 13.467 8.51402 13.5519 8.66498 13.7029C8.81593 13.8538 8.90084 14.0585 8.90107 14.272V16.4218Z" fill="#F6F6F6"></path><path d="M8.09587 4.23291H5.94427C5.32246 4.23361 4.72631 4.4809 4.28658 4.92055C3.84685 5.36019 3.59945 5.9563 3.59863 6.57811V8.72795C3.59945 9.34976 3.84685 9.94587 4.28658 10.3855C4.72631 10.8252 5.32246 11.0725 5.94427 11.0732H7.01919C7.22341 11.0732 7.41926 10.992 7.56367 10.8476C7.70807 10.7032 7.78919 10.5074 7.78919 10.3032C7.78919 10.0989 7.70807 9.90308 7.56367 9.75868C7.41926 9.61427 7.22341 9.53315 7.01919 9.53315H5.94427C5.73072 9.53303 5.52593 9.44818 5.37488 9.29721C5.22383 9.14624 5.13887 8.94151 5.13863 8.72795V6.57811C5.13887 6.36455 5.22383 6.15982 5.37488 6.00885C5.52593 5.85788 5.73072 5.77303 5.94427 5.77291H8.09587C8.30935 5.77314 8.51402 5.85805 8.66498 6.00901C8.81593 6.15996 8.90084 6.36463 8.90107 6.57811V7.65303C8.90107 7.85725 8.9822 8.0531 9.1266 8.1975C9.271 8.34191 9.46686 8.42303 9.67107 8.42303C9.87529 8.42303 10.0711 8.34191 10.2155 8.1975C10.3599 8.0531 10.4411 7.85725 10.4411 7.65303V6.57811C10.4404 5.95634 10.1931 5.36023 9.75341 4.92058C9.31375 4.48092 8.71764 4.23361 8.09587 4.23291Z" fill="#F6F6F6"></path><path d="M9.44627 11.0292C9.59397 11.029 9.73848 10.9862 9.86255 10.9061C9.98662 10.826 10.085 10.7118 10.146 10.5773C10.2069 10.4427 10.2279 10.2935 10.2063 10.1474C10.1848 10.0013 10.1216 9.86444 10.0244 9.75323L8.42503 7.93119C8.28894 7.78299 8.10024 7.69395 7.89932 7.68312C7.69841 7.6723 7.50124 7.74054 7.35 7.87326C7.19877 8.00598 7.1055 8.19262 7.09014 8.39324C7.07478 8.59386 7.13856 8.79252 7.26783 8.94671L8.86723 10.7692C8.93963 10.8513 9.02875 10.917 9.12862 10.9618C9.22849 11.0067 9.3368 11.0297 9.44627 11.0292Z" fill="#F6F6F6"></path><path d="M17.4756 15.0869C17.6798 15.0868 17.8756 15.0056 18.02 14.8613C18.1644 14.7169 18.2455 14.5211 18.2456 14.3169V13.48C18.2451 13.0681 18.0811 12.6732 17.7898 12.3819C17.4985 12.0907 17.1035 11.9269 16.6916 11.9264H15.6118C15.4076 11.9264 15.2117 12.0075 15.0673 12.1519C14.9229 12.2963 14.8418 12.4922 14.8418 12.6964C14.8418 12.9006 14.9229 13.0965 15.0673 13.2409C15.2117 13.3853 15.4076 13.4664 15.6118 13.4664H16.6916C16.6934 13.4663 16.6952 13.4666 16.6969 13.4673C16.6986 13.468 16.7002 13.469 16.7015 13.4702C16.7028 13.4715 16.7038 13.473 16.7046 13.4747C16.7053 13.4764 16.7056 13.4782 16.7056 13.48V14.316C16.7055 14.4172 16.7254 14.5174 16.764 14.611C16.8026 14.7045 16.8593 14.7895 16.9309 14.8611C17.0024 14.9327 17.0873 14.9895 17.1808 15.0282C17.2742 15.067 17.3744 15.0869 17.4756 15.0869Z" fill="#F6F6F6"></path><path d="M18.6652 17.997C18.665 17.7928 18.5839 17.5971 18.4395 17.4527C18.2951 17.3083 18.0993 17.2271 17.8952 17.227H16.32V15.5744C16.32 15.3702 16.2388 15.1743 16.0944 15.0299C15.95 14.8855 15.7542 14.8044 15.55 14.8044H12.9619V12.8094C12.9619 12.6052 12.8807 12.4094 12.7363 12.265C12.5919 12.1206 12.3961 12.0394 12.1919 12.0394C11.9877 12.0394 11.7918 12.1206 11.6474 12.265C11.503 12.4094 11.4219 12.6052 11.4219 12.8094V17.8839C11.4219 18.0882 11.503 18.284 11.6474 18.4284C11.7918 18.5728 11.9877 18.6539 12.1919 18.6539C12.3961 18.6539 12.5919 18.5728 12.7363 18.4284C12.8807 18.284 12.9619 18.0882 12.9619 17.8839V16.3439H14.78V17.9966C14.78 18.2008 14.8611 18.3967 15.0055 18.5411C15.1499 18.6855 15.3457 18.7666 15.55 18.7666H17.8952C18.0993 18.7666 18.2951 18.6855 18.4395 18.5412C18.5839 18.3969 18.665 18.2012 18.6652 17.997Z" fill="#F6F6F6"></path><path d="M15.4128 6.54211H14.2393C13.9497 6.54211 13.7148 6.77693 13.7148 7.06659V8.24007C13.7148 8.52974 13.9497 8.76455 14.2393 8.76455H15.4128C15.7025 8.76455 15.9373 8.52974 15.9373 8.24007V7.06659C15.9373 6.77693 15.7025 6.54211 15.4128 6.54211Z" fill="#F6F6F6"></path><path d="M7.60616 14.236H6.43268C6.14302 14.236 5.9082 14.4708 5.9082 14.7604V15.9339C5.9082 16.2236 6.14302 16.4584 6.43268 16.4584H7.60616C7.89583 16.4584 8.13064 16.2236 8.13064 15.9339V14.7604C8.13064 14.4708 7.89583 14.236 7.60616 14.236Z" fill="#F6F6F6"></path></svg>
