<svg
  width="24"
  height="24"
  viewBox="0 0 24 24"
  fill="none"
  xmlns="http://www.w3.org/2000/svg"
><g clip-path="url(#clip0_421_2246)"><path d="M22.8695 1.05604C22.612 0.801481 22.289 0.623293 21.9363 0.541269C21.5836 0.459245 21.2151 0.476597 20.8717 0.591399L1.8887 6.8794C1.51432 7.00352 1.18588 7.23728 0.945969 7.55034C0.706059 7.8634 0.565752 8.24133 0.543246 8.63511C0.520741 9.02888 0.617074 9.42034 0.819753 9.75869C1.02243 10.0971 1.3221 10.3667 1.6799 10.5327L9.6623 14.2359C9.77251 14.2871 9.86168 14.3747 9.91478 14.484L13.7548 22.404C13.9146 22.7368 14.1654 23.0175 14.478 23.2137C14.7907 23.4099 15.1525 23.5136 15.5217 23.5128C15.5697 23.5128 15.6205 23.5128 15.6709 23.5076C16.0645 23.4796 16.4404 23.3334 16.7493 23.0881C17.0583 22.8428 17.2859 22.5098 17.4023 22.1328L23.3677 3.04468C23.4765 2.69953 23.4875 2.331 23.3995 1.97998C23.3116 1.62895 23.1281 1.30915 22.8695 1.05604ZM21.9935 2.6146L16.0261 21.7018C15.9942 21.8023 15.9329 21.8909 15.8502 21.9562C15.7675 22.0215 15.6671 22.0606 15.562 22.0684C15.4569 22.0762 15.3518 22.0524 15.2604 21.9999C15.1689 21.9475 15.0953 21.8689 15.0489 21.7743L11.2089 13.8543C11.0105 13.4464 10.6778 13.1193 10.2666 12.9279L2.28566 9.22612C2.19029 9.18129 2.11051 9.10894 2.0566 9.01839C2.00269 8.92784 1.97711 8.82323 1.98315 8.71802C1.98919 8.61281 2.02658 8.51181 2.0905 8.42803C2.15442 8.34424 2.24194 8.2815 2.34182 8.24788L21.3249 1.95988C21.4166 1.93008 21.5147 1.92597 21.6086 1.94798C21.7025 1.97 21.7885 2.01731 21.8574 2.08478C21.9263 2.15224 21.9754 2.23729 21.9994 2.33069C22.0234 2.42409 22.0214 2.52228 21.9935 2.6146Z" fill="#292B2C"></path><path d="M15.9912 7.02435L11.7312 11.3578C11.6064 11.4956 11.5398 11.6764 11.5452 11.8622C11.5507 12.0481 11.6278 12.2246 11.7605 12.3548C11.8932 12.4851 12.0711 12.559 12.257 12.561C12.4429 12.563 12.6224 12.4931 12.7579 12.3658L17.0179 8.03284C17.0886 7.96642 17.1452 7.8864 17.1842 7.79759C17.2232 7.70878 17.2438 7.613 17.2449 7.516C17.2459 7.41901 17.2274 7.3228 17.1904 7.23315C17.1533 7.1435 17.0985 7.06226 17.0293 6.99431C16.9601 6.92635 16.8779 6.87308 16.7876 6.8377C16.6972 6.80232 16.6007 6.78555 16.5038 6.7884C16.4068 6.79125 16.3114 6.81366 16.2233 6.85429C16.1353 6.89492 16.0563 6.95293 15.9912 7.02484V7.02435Z" fill="#292B2C"></path></g><defs><clipPath id="clip0_421_2246"><rect width="24" height="24" fill="white"></rect></clipPath></defs></svg>
