<svg
  width="25"
  height="24"
  viewBox="0 0 25 24"
  fill="none"
  xmlns="http://www.w3.org/2000/svg"
><path d="M23.8982 12.0001C23.8981 9.7469 23.2298 7.54438 21.978 5.67097C20.7262 3.79757 18.9469 2.33743 16.8653 1.47517C14.7837 0.612909 12.4931 0.387255 10.2832 0.826739C8.07331 1.26622 6.04336 2.35111 4.45003 3.94422C2.58744 5.8085 1.42861 8.26074 1.17086 10.8834C0.913113 13.5061 1.57238 16.137 3.03641 18.3282C4.50044 20.5194 6.67871 22.1354 9.20033 22.9011C11.7219 23.6667 14.431 23.5347 16.8662 22.5274C17.7153 23.1562 18.7621 23.4592 19.8158 23.3811C20.8695 23.303 21.8601 22.8491 22.6073 22.102C23.3545 21.3548 23.8085 20.3642 23.8867 19.3105C23.9648 18.2568 23.662 17.2101 23.0332 16.3609C23.6074 14.9789 23.9014 13.4966 23.8982 12.0001ZM2.55355 12.0001C2.55355 6.51222 7.01755 2.04774 12.5059 2.04774C17.9942 2.04774 22.4582 6.51174 22.4582 12.0001C22.4604 13.1208 22.2721 14.2338 21.9014 15.2914C21.1037 14.7702 20.1587 14.5213 19.2077 14.582C18.2568 14.6426 17.3511 15.0096 16.626 15.6279C15.901 16.2463 15.3958 17.0827 15.1858 18.0122C14.9758 18.9417 15.0724 19.9141 15.4612 20.7841C15.557 20.9958 15.6694 21.1996 15.7972 21.3937C14.7401 21.7644 13.6276 21.9527 12.5073 21.9505C7.01755 21.9524 2.55355 17.4879 2.55355 12.0001ZM19.4875 21.9524C18.7384 21.9517 18.0171 21.6685 17.4676 21.1594L17.4647 21.157C17.1726 20.8867 16.938 20.5602 16.775 20.197C16.5128 19.612 16.4468 18.9578 16.5869 18.3321C16.7271 17.7065 17.0658 17.143 17.5525 16.7257C18.0393 16.3083 18.6479 16.0596 19.2876 16.0167C19.9273 15.9737 20.5637 16.1388 21.1019 16.4872C21.6401 16.8357 22.0511 17.3489 22.2737 17.9501C22.4962 18.5514 22.5184 19.2085 22.3367 19.8234C22.1551 20.4383 21.7795 20.978 21.266 21.3618C20.7525 21.7457 20.1286 21.9532 19.4875 21.9533V21.9524Z" fill="#292B2C"></path><path d="M20.9976 18.2679H20.2018V17.4721C20.2018 17.2828 20.1266 17.1012 19.9927 16.9674C19.8589 16.8335 19.6773 16.7583 19.488 16.7583C19.2987 16.7583 19.1172 16.8335 18.9833 16.9674C18.8494 17.1012 18.7742 17.2828 18.7742 17.4721V18.2679H17.9784C17.7891 18.2679 17.6076 18.3431 17.4737 18.477C17.3398 18.6108 17.2646 18.7924 17.2646 18.9817C17.2646 19.171 17.3398 19.3525 17.4737 19.4864C17.6076 19.6202 17.7891 19.6954 17.9784 19.6954H18.7742V20.4913C18.7742 20.6806 18.8494 20.8621 18.9833 20.996C19.1172 21.1298 19.2987 21.205 19.488 21.205C19.6773 21.205 19.8589 21.1298 19.9927 20.996C20.1266 20.8621 20.2018 20.6806 20.2018 20.4913V19.6954H20.9976C21.1869 19.6954 21.3685 19.6202 21.5023 19.4864C21.6362 19.3525 21.7114 19.171 21.7114 18.9817C21.7114 18.7924 21.6362 18.6108 21.5023 18.477C21.3685 18.3431 21.1869 18.2679 20.9976 18.2679Z" fill="#292B2C"></path><path d="M13.2533 11.2055H11.761C11.5549 11.2004 11.3589 11.115 11.215 10.9674C11.071 10.8198 10.9904 10.6218 10.9904 10.4156C10.9904 10.2095 11.071 10.0115 11.215 9.8639C11.3589 9.71633 11.5549 9.63088 11.761 9.6258H12.9937C13.2151 9.6255 13.4333 9.67867 13.6298 9.78079C13.8262 9.88291 13.9951 10.031 14.1221 10.2124C14.1849 10.3049 14.2654 10.3839 14.3591 10.4449C14.4528 10.5058 14.5578 10.5475 14.6678 10.5673C14.7778 10.5871 14.8906 10.5848 14.9997 10.5604C15.1088 10.536 15.2119 10.4901 15.303 10.4253C15.3941 10.3605 15.4713 10.2781 15.5301 10.1831C15.5889 10.088 15.6282 9.98217 15.6455 9.87174C15.6629 9.76132 15.658 9.64854 15.6311 9.54003C15.6043 9.43152 15.556 9.32948 15.4892 9.23988C15.2414 8.88905 14.9224 8.59442 14.553 8.37524C14.1836 8.15606 13.7722 8.01725 13.3455 7.96788V7.36692C13.3482 7.25508 13.3284 7.14383 13.2875 7.03972C13.2465 6.93561 13.1852 6.84075 13.107 6.7607C13.0289 6.68065 12.9355 6.61704 12.8324 6.57361C12.7293 6.53019 12.6186 6.50781 12.5067 6.50781C12.3948 6.50781 12.2841 6.53019 12.181 6.57361C12.0779 6.61704 11.9845 6.68065 11.9063 6.7607C11.8282 6.84075 11.7668 6.93561 11.7259 7.03972C11.6849 7.14383 11.6652 7.25508 11.6679 7.36692V7.94916C11.0229 7.97458 10.4136 8.25173 9.97065 8.72117C9.52766 9.19061 9.28628 9.81495 9.29828 10.4603C9.31027 11.1056 9.57469 11.7206 10.0348 12.1732C10.4949 12.6259 11.1141 12.8802 11.7596 12.8816H13.2519C13.4614 12.8816 13.6624 12.9649 13.8106 13.113C13.9587 13.2612 14.042 13.4622 14.042 13.6717C14.042 13.8813 13.9587 14.0822 13.8106 14.2304C13.6624 14.3786 13.4614 14.4618 13.2519 14.4618H12.0135C11.7953 14.4618 11.5803 14.4095 11.3864 14.3093C11.1926 14.209 11.0256 14.0638 10.8994 13.8858C10.7808 13.7084 10.5989 13.5828 10.3909 13.5348C10.183 13.4868 9.96448 13.5199 9.78006 13.6274C9.59564 13.7349 9.45915 13.9086 9.39841 14.1133C9.33767 14.3179 9.35725 14.538 9.45317 14.7287C9.47093 14.7645 9.49131 14.799 9.51413 14.8319C9.76091 15.1876 10.0808 15.4866 10.4524 15.7089C10.8239 15.9311 11.2387 16.0715 11.6689 16.1207V16.6333C11.6662 16.7452 11.6859 16.8564 11.7268 16.9605C11.7678 17.0646 11.8292 17.1595 11.9073 17.2395C11.9855 17.3196 12.0788 17.3832 12.1819 17.4266C12.285 17.4701 12.3958 17.4924 12.5077 17.4924C12.6195 17.4924 12.7303 17.4701 12.8334 17.4266C12.9365 17.3832 13.0298 17.3196 13.108 17.2395C13.1861 17.1595 13.2475 17.0646 13.2885 16.9605C13.3294 16.8564 13.3491 16.7452 13.3465 16.6333V16.138C13.9914 16.1125 14.6008 15.8353 15.0438 15.3659C15.4867 14.8964 15.7281 14.272 15.716 13.6266C15.704 12.9812 15.4395 12.3663 14.9793 11.9136C14.519 11.461 13.8998 11.2068 13.2543 11.2055H13.2533Z" fill="#292B2C"></path></svg>
